<?xml version="1.0" encoding="us-ascii" standalone="no"?><svg xmlns="http://www.w3.org/2000/svg" xmlns:xlink="http://www.w3.org/1999/xlink" contentStyleType="text/css" height="488px" preserveAspectRatio="none" style="width:1206px;height:488px;background:#FFFFFF;" version="1.1" viewBox="0 0 1206 488" width="1206px" zoomAndPan="magnify"><defs/><g><rect fill="#FFFFFF" height="296" style="stroke:#181818;stroke-width:1.0;" width="10" x="41.5" y="92.6094"/><rect fill="#FFFFFF" height="273.6484" style="stroke:#181818;stroke-width:1.0;" width="10" x="318.5" y="114.9609"/><rect fill="#FFFFFF" height="243.2969" style="stroke:#181818;stroke-width:1.0;" width="10" x="600.5" y="145.3125"/><rect fill="#FFFFFF" height="73.7031" style="stroke:#181818;stroke-width:1.0;" width="10" x="1059.5" y="175.6641"/><rect fill="none" height="94.8906" style="stroke:#000000;stroke-width:1.5;" width="402.5" x="287.5" y="264.3672"/><line style="stroke:#181818;stroke-width:0.5;stroke-dasharray:5.0,5.0;" x1="46" x2="46" y1="82.6094" y2="406.6094"/><line style="stroke:#181818;stroke-width:0.5;stroke-dasharray:5.0,5.0;" x1="323.5" x2="323.5" y1="82.6094" y2="406.6094"/><line style="stroke:#181818;stroke-width:0.5;stroke-dasharray:5.0,5.0;" x1="605" x2="605" y1="82.6094" y2="406.6094"/><line style="stroke:#181818;stroke-width:0.5;stroke-dasharray:5.0,5.0;" x1="1064" x2="1064" y1="82.6094" y2="406.6094"/><text fill="#000000" font-family="sans-serif" font-size="14" lengthAdjust="spacing" textLength="77" x="5" y="79.5332">&#1055;&#1086;&#1082;&#1091;&#1087;&#1072;&#1090;&#1077;&#1083;&#1100;</text><ellipse cx="46.5" cy="13.5" fill="#E2E2F0" rx="8" ry="8" style="stroke:#181818;stroke-width:0.5;"/><path d="M46.5,21.5 L46.5,48.5 M33.5,29.5 L59.5,29.5 M46.5,48.5 L33.5,63.5 M46.5,48.5 L59.5,63.5 " fill="none" style="stroke:#181818;stroke-width:0.5;"/><text fill="#000000" font-family="sans-serif" font-size="14" lengthAdjust="spacing" textLength="77" x="5" y="420.1426">&#1055;&#1086;&#1082;&#1091;&#1087;&#1072;&#1090;&#1077;&#1083;&#1100;</text><ellipse cx="46.5" cy="431.7188" fill="#E2E2F0" rx="8" ry="8" style="stroke:#181818;stroke-width:0.5;"/><path d="M46.5,439.7188 L46.5,466.7188 M33.5,447.7188 L59.5,447.7188 M46.5,466.7188 L33.5,481.7188 M46.5,466.7188 L59.5,481.7188 " fill="none" style="stroke:#181818;stroke-width:0.5;"/><text fill="#000000" font-family="sans-serif" font-size="14" lengthAdjust="spacing" textLength="46" x="297.5" y="79.5332">&#1050;&#1072;&#1089;&#1089;&#1080;&#1088;</text><ellipse cx="323.5" cy="13.5" fill="#E2E2F0" rx="8" ry="8" style="stroke:#181818;stroke-width:0.5;"/><path d="M323.5,21.5 L323.5,48.5 M310.5,29.5 L336.5,29.5 M323.5,48.5 L310.5,63.5 M323.5,48.5 L336.5,63.5 " fill="none" style="stroke:#181818;stroke-width:0.5;"/><text fill="#000000" font-family="sans-serif" font-size="14" lengthAdjust="spacing" textLength="46" x="297.5" y="420.1426">&#1050;&#1072;&#1089;&#1089;&#1080;&#1088;</text><ellipse cx="323.5" cy="431.7188" fill="#E2E2F0" rx="8" ry="8" style="stroke:#181818;stroke-width:0.5;"/><path d="M323.5,439.7188 L323.5,466.7188 M310.5,447.7188 L336.5,447.7188 M323.5,466.7188 L310.5,481.7188 M323.5,466.7188 L336.5,481.7188 " fill="none" style="stroke:#181818;stroke-width:0.5;"/><rect fill="#E2E2F0" height="31.6094" rx="2.5" ry="2.5" style="stroke:#181818;stroke-width:0.5;" width="149" x="531" y="50"/><text fill="#000000" font-family="sans-serif" font-size="14" lengthAdjust="spacing" textLength="135" x="538" y="71.5332">&#1050;&#1072;&#1089;&#1089;&#1086;&#1074;&#1072;&#1103;&#1055;&#1088;&#1086;&#1075;&#1088;&#1072;&#1084;&#1084;&#1072;</text><rect fill="#E2E2F0" height="31.6094" rx="2.5" ry="2.5" style="stroke:#181818;stroke-width:0.5;" width="149" x="531" y="405.6094"/><text fill="#000000" font-family="sans-serif" font-size="14" lengthAdjust="spacing" textLength="135" x="538" y="427.1426">&#1050;&#1072;&#1089;&#1089;&#1086;&#1074;&#1072;&#1103;&#1055;&#1088;&#1086;&#1075;&#1088;&#1072;&#1084;&#1084;&#1072;</text><rect fill="#E2E2F0" height="31.6094" rx="2.5" ry="2.5" style="stroke:#181818;stroke-width:0.5;" width="97" x="1016" y="50"/><text fill="#000000" font-family="sans-serif" font-size="14" lengthAdjust="spacing" textLength="83" x="1023" y="71.5332">LoyaltyBrand</text><rect fill="#E2E2F0" height="31.6094" rx="2.5" ry="2.5" style="stroke:#181818;stroke-width:0.5;" width="97" x="1016" y="405.6094"/><text fill="#000000" font-family="sans-serif" font-size="14" lengthAdjust="spacing" textLength="83" x="1023" y="427.1426">LoyaltyBrand</text><rect fill="#FFFFFF" height="296" style="stroke:#181818;stroke-width:1.0;" width="10" x="41.5" y="92.6094"/><rect fill="#FFFFFF" height="273.6484" style="stroke:#181818;stroke-width:1.0;" width="10" x="318.5" y="114.9609"/><rect fill="#FFFFFF" height="243.2969" style="stroke:#181818;stroke-width:1.0;" width="10" x="600.5" y="145.3125"/><rect fill="#FFFFFF" height="73.7031" style="stroke:#181818;stroke-width:1.0;" width="10" x="1059.5" y="175.6641"/><polygon fill="#181818" points="306.5,110.9609,316.5,114.9609,306.5,118.9609,310.5,114.9609" style="stroke:#181818;stroke-width:1.0;"/><line style="stroke:#181818;stroke-width:1.0;" x1="51.5" x2="312.5" y1="114.9609" y2="114.9609"/><text fill="#000000" font-family="sans-serif" font-size="13" font-weight="bold" lengthAdjust="spacing" textLength="7" x="58.5" y="110.1045">1</text><text fill="#000000" font-family="sans-serif" font-size="13" lengthAdjust="spacing" textLength="124" x="69.5" y="110.1045">&#1087;&#1088;&#1077;&#1076;&#1086;&#1089;&#1090;&#1072;&#1074;&#1083;&#1103;&#1077;&#1090; &#1082;&#1072;&#1088;&#1090;&#1091;</text><polygon fill="#181818" points="588.5,141.3125,598.5,145.3125,588.5,149.3125,592.5,145.3125" style="stroke:#181818;stroke-width:1.0;"/><line style="stroke:#181818;stroke-width:1.0;" x1="328.5" x2="594.5" y1="145.3125" y2="145.3125"/><text fill="#000000" font-family="sans-serif" font-size="13" font-weight="bold" lengthAdjust="spacing" textLength="7" x="335.5" y="140.4561">2</text><text fill="#000000" font-family="sans-serif" font-size="13" lengthAdjust="spacing" textLength="96" x="346.5" y="140.4561">&#1089;&#1082;&#1072;&#1085;&#1080;&#1088;&#1091;&#1077;&#1090; &#1082;&#1072;&#1088;&#1090;&#1091;</text><polygon fill="#181818" points="1047.5,171.6641,1057.5,175.6641,1047.5,179.6641,1051.5,175.6641" style="stroke:#181818;stroke-width:1.0;"/><line style="stroke:#181818;stroke-width:1.0;" x1="610.5" x2="1053.5" y1="175.6641" y2="175.6641"/><text fill="#000000" font-family="sans-serif" font-size="13" font-weight="bold" lengthAdjust="spacing" textLength="7" x="617.5" y="170.8076">3</text><text fill="#000000" font-family="sans-serif" font-size="13" lengthAdjust="spacing" textLength="226" x="628.5" y="170.8076">&#1047;&#1072;&#1087;&#1088;&#1086;&#1089; GetCustomerInfo (cardNumber)</text><line style="stroke:#181818;stroke-width:1.0;" x1="1069.5" x2="1111.5" y1="206.0156" y2="206.0156"/><line style="stroke:#181818;stroke-width:1.0;" x1="1111.5" x2="1111.5" y1="206.0156" y2="219.0156"/><line style="stroke:#181818;stroke-width:1.0;" x1="1070.5" x2="1111.5" y1="219.0156" y2="219.0156"/><polygon fill="#181818" points="1080.5,215.0156,1070.5,219.0156,1080.5,223.0156,1076.5,219.0156" style="stroke:#181818;stroke-width:1.0;"/><text fill="#000000" font-family="sans-serif" font-size="13" font-weight="bold" lengthAdjust="spacing" textLength="7" x="1076.5" y="201.1592">4</text><text fill="#000000" font-family="sans-serif" font-size="13" lengthAdjust="spacing" textLength="112" x="1087.5" y="201.1592">&#1086;&#1073;&#1088;&#1072;&#1073;&#1086;&#1090;&#1082;&#1072; &#1079;&#1072;&#1087;&#1088;&#1086;&#1089;&#1072;</text><polygon fill="#181818" points="621.5,245.3672,611.5,249.3672,621.5,253.3672,617.5,249.3672" style="stroke:#181818;stroke-width:1.0;"/><line style="stroke:#181818;stroke-width:1.0;stroke-dasharray:2.0,2.0;" x1="615.5" x2="1063.5" y1="249.3672" y2="249.3672"/><text fill="#000000" font-family="sans-serif" font-size="13" font-weight="bold" lengthAdjust="spacing" textLength="7" x="627.5" y="244.5107">5</text><text fill="#000000" font-family="sans-serif" font-size="13" lengthAdjust="spacing" textLength="414" x="638.5" y="244.5107">&#1054;&#1090;&#1074;&#1077;&#1090; GetCustomerInfo (cardNumber, cardType, clientID, errorCode, fio)</text><path d="M287.5,264.3672 L348.5,264.3672 L348.5,272.7188 L338.5,282.7188 L287.5,282.7188 L287.5,264.3672 " fill="#EEEEEE" style="stroke:#000000;stroke-width:1.5;"/><rect fill="none" height="94.8906" style="stroke:#000000;stroke-width:1.5;" width="402.5" x="287.5" y="264.3672"/><text fill="#000000" font-family="sans-serif" font-size="13" font-weight="bold" lengthAdjust="spacing" textLength="16" x="302.5" y="278.8623">alt</text><text fill="#000000" font-family="sans-serif" font-size="11" font-weight="bold" lengthAdjust="spacing" textLength="101" x="363.5" y="277.7861">[&#1054;&#1090;&#1074;&#1077;&#1090; &#1091;&#1089;&#1087;&#1077;&#1096;&#1085;&#1099;&#1081;]</text><polygon fill="#181818" points="339.5,301.0703,329.5,305.0703,339.5,309.0703,335.5,305.0703" style="stroke:#181818;stroke-width:1.0;"/><line style="stroke:#181818;stroke-width:1.0;stroke-dasharray:2.0,2.0;" x1="333.5" x2="599.5" y1="305.0703" y2="305.0703"/><text fill="#000000" font-family="sans-serif" font-size="13" font-weight="bold" lengthAdjust="spacing" textLength="7" x="345.5" y="300.2139">6</text><text fill="#000000" font-family="sans-serif" font-size="13" lengthAdjust="spacing" textLength="237" x="356.5" y="300.2139">&#1086;&#1090;&#1086;&#1073;&#1088;&#1072;&#1078;&#1077;&#1085;&#1080;&#1077; &#1080;&#1085;&#1092;&#1086;&#1088;&#1084;&#1072;&#1094;&#1080;&#1080; &#1086; &#1087;&#1086;&#1082;&#1091;&#1087;&#1072;&#1090;&#1077;&#1083;&#1077;</text><line style="stroke:#000000;stroke-width:1.0;stroke-dasharray:2.0,2.0;" x1="287.5" x2="690" y1="314.0703" y2="314.0703"/><text fill="#000000" font-family="sans-serif" font-size="11" font-weight="bold" lengthAdjust="spacing" textLength="184" x="292.5" y="325.4893">[&#1054;&#1090;&#1074;&#1077;&#1090; &#1086;&#1090;&#1083;&#1080;&#1095;&#1072;&#1077;&#1090;&#1089;&#1103; &#1086;&#1090; &#1091;&#1089;&#1087;&#1077;&#1096;&#1085;&#1086;&#1075;&#1086;]</text><polygon fill="#181818" points="339.5,347.2578,329.5,351.2578,339.5,355.2578,335.5,351.2578" style="stroke:#181818;stroke-width:1.0;"/><line style="stroke:#181818;stroke-width:1.0;" x1="333.5" x2="599.5" y1="351.2578" y2="351.2578"/><text fill="#000000" font-family="sans-serif" font-size="13" font-weight="bold" lengthAdjust="spacing" textLength="7" x="345.5" y="346.4014">7</text><text fill="#000000" font-family="sans-serif" font-size="13" lengthAdjust="spacing" textLength="222" x="356.5" y="346.4014">&#1086;&#1090;&#1086;&#1073;&#1088;&#1072;&#1078;&#1077;&#1085;&#1080;&#1077; &#1080;&#1085;&#1092;&#1086;&#1088;&#1084;&#1072;&#1094;&#1080;&#1080; &#1086;&#1073; &#1086;&#1096;&#1080;&#1073;&#1082;&#1077;</text><polygon fill="#181818" points="57.5,384.6094,47.5,388.6094,57.5,392.6094,53.5,388.6094" style="stroke:#181818;stroke-width:1.0;"/><line style="stroke:#181818;stroke-width:1.0;stroke-dasharray:2.0,2.0;" x1="51.5" x2="322.5" y1="388.6094" y2="388.6094"/><text fill="#000000" font-family="sans-serif" font-size="13" font-weight="bold" lengthAdjust="spacing" textLength="7" x="63.5" y="383.7529">8</text><text fill="#000000" font-family="sans-serif" font-size="13" lengthAdjust="spacing" textLength="232" x="74.5" y="383.7529">&#1048;&#1085;&#1092;&#1086;&#1088;&#1084;&#1080;&#1088;&#1091;&#1077;&#1090; &#1087;&#1086;&#1082;&#1091;&#1087;&#1072;&#1090;&#1077;&#1083;&#1103; &#1086; &#1088;&#1077;&#1079;&#1091;&#1083;&#1100;&#1090;&#1072;&#1090;&#1077;</text><!--SRC=[fLJDJi904Bxx57FK15_0WmSnCIR6aozGOKcQO4lMnOHRAKP9DE6eyI2l06W5VoYlCFj6Vbi2RajB84BIpCxipFVDjxDBHEGqbUyrhow5tDaXiwueNnBtEUOltU4P3tJ84N_hHply0dTRjtcYWtbQmv7AhRWDnrD_qPX7i7hSrm7iDtm7_8F_O2Nbp6yvTTKwaevNNV9mRnmbYgcONrwGzWzJ10-8Pu2E-9rZ-4AG665VZoCT4dzXOw13tSd2sYqkuInd2gQmqmD251WyDJaWcW5TL2u0NwzWYbBXLaFKrXTwF25cD84UT29KkNcj_2iXJxsQJxiLHrRFaudOosYIEgK50TkP0nNpCA4o15Xe6YSU_w5RZQJhR2WklwBeA15rJHybClP5go5WrLtXgTFZ4WafVLdsgt3MN7yl8L8L-StETQWh6r1tm6q6iyjJ_S2VMnt9wemQUHPYVM1QCJ0S4JvJVOjWOFBq7TOJxCL8PmUVepbBKRyMDisay3T0xb4O3a3s4cUg0SEFuosdwZyTyD0aTB4QOYgYENMSF1LSDWENSza1-spLj-xOYa19svIy16FuaMpU0XFB7ls6roylO_5QsB4Sshy0]--></g></svg>